<svg width="1080" height="1080" viewBox="0 0 1080 1080" fill="none" xmlns="http://www.w3.org/2000/svg">
<path d="M236.8 806C213.933 806 192.933 801.333 173.8 792C154.667 782.2 139.033 769.367 126.9 753.5C114.767 737.167 107.767 718.967 105.9 698.9V555.4C107.767 535.333 114.767 517.6 126.9 502.2C139.033 486.333 154.667 473.967 173.8 465.1C192.933 456.233 213.933 451.8 236.8 451.8C269 451.8 297.467 459.5 322.2 474.9C347.4 490.3 367 511.3 381 537.9C395.467 564.5 402.7 594.833 402.7 628.9C402.7 662.967 395.467 693.3 381 719.9C367 746.5 347.4 767.5 322.2 782.9C297.467 798.3 269 806 236.8 806ZM40.8 799V290.8H147.9V542.1L130.4 624.7L146.5 707.3V799H40.8ZM217.9 709.4C232.833 709.4 245.9 705.9 257.1 698.9C268.767 691.9 277.867 682.333 284.4 670.2C290.933 658.067 294.2 644.3 294.2 628.9C294.2 613.033 290.933 599.033 284.4 586.9C277.867 574.767 268.767 565.433 257.1 558.9C245.9 551.9 232.833 548.4 217.9 548.4C202.967 548.4 189.667 551.9 178 558.9C166.333 565.433 157.233 574.767 150.7 586.9C144.633 599.033 141.6 613.033 141.6 628.9C141.6 644.767 144.867 658.767 151.4 670.9C157.933 683.033 166.8 692.6 178 699.6C189.667 706.133 202.967 709.4 217.9 709.4ZM569.109 806C546.242 806 525.242 801.333 506.109 792C486.975 782.2 471.342 769.367 459.209 753.5C447.075 737.167 440.075 718.967 438.209 698.9V555.4C440.075 535.333 447.075 517.6 459.209 502.2C471.342 486.333 486.975 473.967 506.109 465.1C525.242 456.233 546.242 451.8 569.109 451.8C601.309 451.8 629.775 459.5 654.509 474.9C679.709 490.3 699.309 511.3 713.309 537.9C727.775 564.5 735.009 594.833 735.009 628.9C735.009 662.967 727.775 693.3 713.309 719.9C699.309 746.5 679.709 767.5 654.509 782.9C629.775 798.3 601.309 806 569.109 806ZM373.109 799V290.8H480.209V542.1L462.709 624.7L478.809 707.3V799H373.109ZM550.209 709.4C565.142 709.4 578.209 705.9 589.409 698.9C601.075 691.9 610.175 682.333 616.709 670.2C623.242 658.067 626.509 644.3 626.509 628.9C626.509 613.033 623.242 599.033 616.709 586.9C610.175 574.767 601.075 565.433 589.409 558.9C578.209 551.9 565.142 548.4 550.209 548.4C535.275 548.4 521.975 551.9 510.309 558.9C498.642 565.433 489.542 574.767 483.009 586.9C476.942 599.033 473.909 613.033 473.909 628.9C473.909 644.767 477.175 658.767 483.709 670.9C490.242 683.033 499.109 692.6 510.309 699.6C521.975 706.133 535.275 709.4 550.209 709.4Z" fill="#0A0B10"/>
<path d="M849.617 951.6C812.284 951.6 779.384 945.067 750.917 932C722.917 919.4 700.751 901.433 684.417 878.1L750.217 812.3C762.351 826.767 775.884 837.733 790.817 845.2C806.217 852.667 824.651 856.4 846.117 856.4C872.717 856.4 893.484 849.867 908.417 836.8C923.817 823.733 931.517 805.3 931.517 781.5V694.7L949.717 620.5L933.617 546.3V458.8H1038.62V778.7C1038.62 813.7 1030.45 844.033 1014.12 869.7C997.784 895.367 975.384 915.433 946.917 929.9C918.451 944.367 886.017 951.6 849.617 951.6ZM844.717 788.5C813.451 788.5 785.684 781.033 761.417 766.1C737.151 751.167 718.017 730.867 704.017 705.2C690.017 679.533 683.017 651.067 683.017 619.8C683.017 588.067 690.017 559.6 704.017 534.4C718.017 508.733 737.151 488.667 761.417 474.2C785.684 459.267 813.451 451.8 844.717 451.8C868.051 451.8 888.817 456.233 907.017 465.1C925.684 473.5 940.617 485.633 951.817 501.5C963.484 516.9 970.017 534.867 971.417 555.4V684.9C970.017 704.967 963.484 722.933 951.817 738.8C940.617 754.2 925.684 766.333 907.017 775.2C888.351 784.067 867.584 788.5 844.717 788.5ZM865.017 693.3C879.951 693.3 892.784 690.033 903.517 683.5C914.717 676.967 923.117 668.333 928.717 657.6C934.784 646.4 937.817 633.8 937.817 619.8C937.817 605.8 934.784 593.2 928.717 582C923.117 570.8 914.717 561.933 903.517 555.4C892.784 548.867 879.951 545.6 865.017 545.6C850.551 545.6 837.717 548.867 826.517 555.4C815.317 561.933 806.684 570.8 800.617 582C794.551 593.2 791.517 605.8 791.517 619.8C791.517 632.867 794.551 645.233 800.617 656.9C806.684 668.1 815.084 676.967 825.817 683.5C837.017 690.033 850.084 693.3 865.017 693.3Z" fill="#FF3B30"/>
</svg>
